<svg xmlns="http://www.w3.org/2000/svg" version="1.1" xmlns:xlink="http://www.w3.org/1999/xlink" xmlns:svgjs="http://svgjs.com/svgjs" width="2440" height="760" preserveAspectRatio="none" viewBox="0 0 2440 760"><g mask="url(&quot;#SvgjsMask1031&quot;)" fill="none"><rect width="2440" height="760" x="0" y="0" fill="rgba(255, 255, 255, 1)"></rect><path d="M455.03 890.99C783.02 861.78 1003.91 184.33 1565.95 183.32 2127.98 182.31 2384.58 543.49 2676.86 548.12" stroke="rgba(213, 231, 250, 0.58)" stroke-width="2"></path><path d="M485.38 780.61C710.97 766 870.74 341.67 1274.81 339.65 1678.88 337.63 1669.53 434.65 2064.24 434.65 2458.95 434.65 2654.89 339.82 2853.67 339.65" stroke="rgba(213, 231, 250, 0.58)" stroke-width="2"></path><path d="M950.08 903.23C1218.62 887.89 1389.86 411.75 1900.25 398.45 2410.64 385.15 2605.23 157.17 2850.42 155.25" stroke="rgba(213, 231, 250, 0.58)" stroke-width="2"></path><path d="M992.53 792.26C1169.82 779.09 1113.19 442.48 1604.78 430.57 2096.37 418.66 2511.46 91.76 2829.28 88.57" stroke="rgba(213, 231, 250, 0.58)" stroke-width="2"></path><path d="M1043.07 821.01C1232.14 771.71 1168.73 254.52 1579.71 252.79 1990.69 251.06 2378.28 487.01 2652.99 488.39" stroke="rgba(213, 231, 250, 0.58)" stroke-width="2"></path></g><defs><mask id="SvgjsMask1031"><rect width="2440" height="760" fill="#ffffff"></rect></mask></defs></svg>