<svg xmlns="http://www.w3.org/2000/svg" version="1.1" xmlns:xlink="http://www.w3.org/1999/xlink" xmlns:svgjs="http://svgjs.com/svgjs" width="1440" height="560" preserveAspectRatio="none" viewBox="0 0 1440 560"><g mask="url(&quot;#SvgjsMask1012&quot;)" fill="none"><rect width="1440" height="560" x="0" y="0" fill="rgba(255, 255, 255, 1)"></rect><path d="M411.3 589.35C533.06 581 618.89 347.96 835.14 347.09 1051.38 346.22 1047.05 417.09 1258.97 417.09 1470.89 417.09 1575.42 347.32 1682.81 347.09" stroke="rgba(24, 130, 241, 0.58)" stroke-width="2"></path><path d="M833.63 636.92C955.26 613.82 985.61 324.22 1201.91 305.86 1418.22 287.5 1472.68 178.9 1570.2 177.06" stroke="rgba(24, 130, 241, 0.58)" stroke-width="2"></path><path d="M421.64 642.95C595.29 617.06 684.66 207.21 969.92 204.09 1255.18 200.97 1377.71 326.53 1518.2 327.29" stroke="rgba(24, 130, 241, 0.58)" stroke-width="2"></path><path d="M944.36 635.87C1046.6 587.78 964.36 287.09 1194.46 259.42 1424.56 231.75 1562.77 93.64 1694.67 91.42" stroke="rgba(24, 130, 241, 0.58)" stroke-width="2"></path><path d="M178.68 614.95C302.5 610.92 404.37 420.39 634.32 420.1 864.27 419.81 862.14 490.1 1089.96 490.1 1317.78 490.1 1430.35 420.3 1545.6 420.1" stroke="rgba(24, 130, 241, 0.58)" stroke-width="2"></path></g><defs><mask id="SvgjsMask1012"><rect width="1440" height="560" fill="#ffffff"></rect></mask></defs></svg>