<svg xmlns="http://www.w3.org/2000/svg" version="1.1" xmlns:xlink="http://www.w3.org/1999/xlink" xmlns:svgjs="http://svgjs.com/svgjs" width="1440" height="560" preserveAspectRatio="none" viewBox="0 0 1440 560"><g mask="url(&quot;#SvgjsMask1011&quot;)" fill="none"><rect width="1440" height="560" x="0" y="0" fill="rgba(255, 255, 255, 1)"></rect><path d="M -763.210735435905,137 C -667.21,208.8 -475.21,467.6 -283.21073543590506,496 C -91.21,524.4 4.79,320 196.78926456409494,279 C 388.79,238 484.79,299.6 676.789264564095,291 C 868.79,282.4 1004.15,219 1156.789264564095,236 C 1309.43,253 1383.36,348 1440,376" stroke="rgba(217, 235, 255, 0.58)" stroke-width="2"></path><path d="M -496.7916164595199,446 C -400.79,393 -208.79,174 -16.791616459519894,181 C 175.21,188 271.21,487.8 463.2083835404801,481 C 655.21,474.2 751.21,177.6 943.2083835404801,147 C 1135.21,116.4 1323.85,315.6 1423.20838354048,328 C 1522.57,340.4 1436.64,232.8 1440,209" stroke="rgba(217, 235, 255, 0.58)" stroke-width="2"></path><path d="M -122.94111874068983,337 C -26.94,306 165.06,149.6 357.05888125931017,182 C 549.06,214.4 645.06,504.6 837.0588812593102,499 C 1029.06,493.4 1125.06,173.2 1317.05888125931,154 C 1509.06,134.8 1772.47,406 1797.05888125931,403 C 1821.65,400 1511.41,191.8 1440,139" stroke="rgba(217, 235, 255, 0.58)" stroke-width="2"></path><path d="M -477.5075533223171,171 C -381.51,222 -189.51,432.4 2.4924466776829135,426 C 194.49,419.6 290.49,139.6 482.4924466776829,139 C 674.49,138.4 770.49,418.2 962.4924466776829,423 C 1154.49,427.8 1346.99,149 1442.492446677683,163 C 1537.99,177 1440.5,427 1440,493" stroke="rgba(217, 235, 255, 0.58)" stroke-width="2"></path></g><defs><mask id="SvgjsMask1011"><rect width="1440" height="560" fill="#ffffff"></rect></mask></defs></svg>